<?xml version="1.0" encoding="UTF-8" standalone="no"?>
<!-- Created with Inkscape (http://www.inkscape.org/) -->

<svg
   width="116.41666mm"
   height="34.395832mm"
   viewBox="0 0 116.41666 34.395832"
   version="1.1"
   id="svg5"
   xml:space="preserve"
   xmlns="http://www.w3.org/2000/svg"
   xmlns:svg="http://www.w3.org/2000/svg"><defs
     id="defs2"><style
       type="text/css"
       id="style2721">*{stroke-linejoin: round; stroke-linecap: butt}</style><clipPath
       id="p99863fd92d"><rect
         x="90"
         y="86.400002"
         width="558"
         height="554.40002"
         id="rect2818" /></clipPath><style
       type="text/css"
       id="style4348">*{stroke-linejoin: round; stroke-linecap: butt}</style><clipPath
       id="p1cdbdb9c68"><rect
         x="90"
         y="86.400002"
         width="558"
         height="554.40002"
         id="rect4445" /></clipPath><style
       type="text/css"
       id="style5249">*{stroke-linejoin: round; stroke-linecap: butt}</style><clipPath
       id="p8e69142465"><rect
         x="90"
         y="86.400002"
         width="558"
         height="554.40002"
         id="rect5346" /></clipPath></defs><g
     id="layer1"
     transform="translate(-243.41666,-21.166668)"><rect
       style="opacity:1;fill:#ffffff;fill-opacity:1;stroke:none;stroke-width:0.4;stroke-linecap:round;stroke-linejoin:round;stroke-opacity:1"
       id="rect6504"
       width="116.41666"
       height="34.395832"
       x="243.41667"
       y="21.166666" /><text
       xml:space="preserve"
       style="font-weight:bold;font-size:16.9333px;font-family:Bahnschrift;-inkscape-font-specification:'Bahnschrift Bold';opacity:0.945393;fill:#000000;fill-opacity:1;stroke:none;stroke-width:0.4;stroke-linecap:round;stroke-linejoin:round"
       x="269.13086"
       y="43.79681"
       id="text2246"><tspan
         id="tspan2244"
         style="fill:#000000;fill-opacity:1;stroke:none;stroke-width:0.4"
         x="269.13086"
         y="43.79681">2DMatGMM</tspan></text><g
       id="figure_1"
       transform="matrix(0.35277778,0,0,0.35277778,-35.784897,-111.60541)"><path
         d="M 177.1875,601.50778 194.625,571.5 l -52.3125,30.00778 34.875,-60.01556 z"
         clip-path="url(#p1cdbdb9c68)"
         style="mix-blend-mode:multiply;fill:#ff00ff;fill-opacity:1;stroke:none;stroke-linejoin:miter;stroke-opacity:1"
         id="path4368"
         transform="translate(662.625,-310.49589)" /><path
         d="m 142.3125,437.54222 h 34.875 L 124.875,467.55 Z"
         clip-path="url(#p1cdbdb9c68)"
         style="mix-blend-mode:multiply;fill:#ff00ff;fill-opacity:1;stroke:none;stroke-linejoin:miter;stroke-opacity:1"
         id="path4371"
         transform="translate(679.125,-42.438211)" /><path
         d="m 194.625,363.6 -52.3125,30.00778 34.875,-60.01556 z"
         clip-path="url(#p1cdbdb9c68)"
         style="mix-blend-mode:multiply;fill:#ff00ff;fill-opacity:1;stroke:none;stroke-linejoin:miter;stroke-opacity:1"
         id="path4374"
         transform="translate(662.625,-310.49589)" /><path
         d="m 142.3125,229.64222 52.3125,30.00778 -52.3125,30.00778 34.875,-60.01556 z"
         clip-path="url(#p1cdbdb9c68)"
         style="mix-blend-mode:multiply;fill:#ff00ff;fill-opacity:1;stroke:none;stroke-linejoin:miter;stroke-opacity:1"
         id="path4377"
         transform="translate(0,-48.280416)" /><path
         d="m 177.1875,185.70778 -34.875,-60.01556 h 34.875 z"
         clip-path="url(#p1cdbdb9c68)"
         style="mix-blend-mode:multiply;fill:#ff00ff;fill-opacity:1;stroke:none;stroke-linejoin:miter;stroke-opacity:1"
         id="path4380"
         transform="translate(0,-48.280416)" /><path
         d="m 246.9375,541.49222 34.875,60.01556 L 299.25,571.5 Z"
         clip-path="url(#p1cdbdb9c68)"
         style="mix-blend-mode:multiply;fill:#ff00ff;fill-opacity:1;stroke:none;stroke-linejoin:miter;stroke-opacity:1"
         id="path4383"
         transform="translate(662.625,-310.49589)" /><path
         d="m 246.9375,497.55778 h 34.875 v -60.01556 z"
         clip-path="url(#p1cdbdb9c68)"
         style="mix-blend-mode:multiply;fill:#ff00ff;fill-opacity:1;stroke:none;stroke-linejoin:miter;stroke-opacity:1"
         id="path4386"
         transform="translate(662.625,-310.49589)" /><path
         d="m 299.25,363.6 -52.3125,30.00778 v -60.01556 l 34.875,60.01556 z"
         clip-path="url(#p1cdbdb9c68)"
         style="mix-blend-mode:multiply;fill:#ff00ff;fill-opacity:1;stroke:none;stroke-linejoin:miter;stroke-opacity:1"
         id="path4389"
         transform="translate(662.625,-310.49589)" /><path
         d="M 281.8125,289.65778 299.25,259.65 246.9375,289.65778 v -60.01556 z"
         clip-path="url(#p1cdbdb9c68)"
         style="mix-blend-mode:multiply;fill:#ff00ff;fill-opacity:1;stroke:none;stroke-linejoin:miter;stroke-opacity:1"
         id="path4392"
         transform="translate(0,-48.280416)" /><path
         d="M 281.8125,125.69222 299.25,155.7 246.9375,125.69222 229.5,155.7 Z"
         clip-path="url(#p1cdbdb9c68)"
         style="mix-blend-mode:multiply;fill:#ff00ff;fill-opacity:1;stroke:none;stroke-linejoin:miter;stroke-opacity:1"
         id="path4395"
         transform="translate(0,-48.280416)" /><path
         d="m 386.4375,541.49222 -34.875,60.01556 h 34.875 L 403.875,571.5 Z"
         clip-path="url(#p1cdbdb9c68)"
         style="mix-blend-mode:multiply;fill:#ff00ff;fill-opacity:1;stroke:none;stroke-linejoin:miter;stroke-opacity:1"
         id="path4398"
         transform="translate(662.625,-310.49589)" /><path
         d="m 351.5625,437.54222 34.875,60.01556 v -60.01556 z"
         clip-path="url(#p1cdbdb9c68)"
         style="mix-blend-mode:multiply;fill:#ff00ff;fill-opacity:1;stroke:none;stroke-linejoin:miter;stroke-opacity:1"
         id="path4401"
         transform="translate(662.625,-310.49589)" /><path
         d="M 386.4375,333.59222 403.875,363.6 351.5625,393.60778 Z"
         clip-path="url(#p1cdbdb9c68)"
         style="mix-blend-mode:multiply;fill:#ff00ff;fill-opacity:1;stroke:none;stroke-linejoin:miter;stroke-opacity:1"
         id="path4404"
         transform="translate(662.625,-310.49589)" /><path
         d="M 386.4375,229.64222 334.125,259.65 l 17.4375,30.00778 z"
         clip-path="url(#p1cdbdb9c68)"
         style="mix-blend-mode:multiply;fill:#ff00ff;fill-opacity:1;stroke:none;stroke-linejoin:miter;stroke-opacity:1"
         id="path4407"
         transform="translate(0,-48.280416)" /><path
         d="M 386.4375,185.70778 403.875,155.7 h -69.75 l 17.4375,30.00778 z"
         clip-path="url(#p1cdbdb9c68)"
         style="mix-blend-mode:multiply;fill:#ff00ff;fill-opacity:1;stroke:none;stroke-linejoin:miter;stroke-opacity:1"
         id="path4410"
         transform="translate(0,-48.280416)" /><path
         d="m 438.75,571.5 h 69.75 l -17.4375,30.00778 z"
         clip-path="url(#p1cdbdb9c68)"
         style="mix-blend-mode:multiply;fill:#ff00ff;fill-opacity:1;stroke:none;stroke-linejoin:miter;stroke-opacity:1"
         id="path4413"
         transform="translate(662.625,-310.49589)" /><path
         d="M 491.0625,497.55778 438.75,467.55 456.1875,437.54222 Z"
         clip-path="url(#p1cdbdb9c68)"
         style="mix-blend-mode:multiply;fill:#ff00ff;fill-opacity:1;stroke:none;stroke-linejoin:miter;stroke-opacity:1"
         id="path4416"
         transform="translate(662.625,-310.49589)" /><path
         d="M 491.0625,393.60778 V 333.59222 L 456.1875,393.60778 438.75,363.6 Z"
         clip-path="url(#p1cdbdb9c68)"
         style="mix-blend-mode:multiply;fill:#ff00ff;fill-opacity:1;stroke:none;stroke-linejoin:miter;stroke-opacity:1"
         id="path4419"
         transform="translate(662.625,-310.49589)" /><path
         d="M 456.1875,289.65778 491.0625,229.64222 508.5,259.65 456.1875,229.64222 Z"
         clip-path="url(#p1cdbdb9c68)"
         style="mix-blend-mode:multiply;fill:#ff00ff;fill-opacity:1;stroke:none;stroke-linejoin:miter;stroke-opacity:1"
         id="path4422"
         transform="translate(0,-48.280416)" /><path
         d="M 456.1875,185.70778 V 125.69222 L 508.5,155.7 Z"
         clip-path="url(#p1cdbdb9c68)"
         style="mix-blend-mode:multiply;fill:#ff00ff;fill-opacity:1;stroke:none;stroke-linejoin:miter;stroke-opacity:1"
         id="path4425"
         transform="translate(0,-48.280416)" /><path
         d="M 543.375,571.5 560.8125,601.50778 613.125,571.5 Z"
         clip-path="url(#p1cdbdb9c68)"
         style="mix-blend-mode:multiply;fill:#ff00ff;fill-opacity:1;stroke:none;stroke-linejoin:miter;stroke-opacity:1"
         id="path4428"
         transform="translate(662.625,-310.49589)" /><path
         d="M 595.6875,497.55778 543.375,467.55 560.8125,437.54222 Z"
         clip-path="url(#p1cdbdb9c68)"
         style="mix-blend-mode:multiply;fill:#ff00ff;fill-opacity:1;stroke:none;stroke-linejoin:miter;stroke-opacity:1"
         id="path4431"
         transform="translate(662.625,-310.49589)" /><path
         d="M 543.375,363.6 560.8125,393.60778 613.125,363.6 595.6875,333.59222 Z"
         clip-path="url(#p1cdbdb9c68)"
         style="mix-blend-mode:multiply;fill:#ff00ff;fill-opacity:1;stroke:none;stroke-linejoin:miter;stroke-opacity:1"
         id="path4434"
         transform="translate(662.625,-310.49589)" /><path
         d="M 560.8125,289.65778 613.125,259.65 560.8125,229.64222 Z"
         clip-path="url(#p1cdbdb9c68)"
         style="mix-blend-mode:multiply;fill:#ff00ff;fill-opacity:1;stroke:none;stroke-linejoin:miter;stroke-opacity:1"
         id="path4437"
         transform="translate(0,-48.280416)" /><path
         d="M 595.6875,185.70778 543.375,155.7 595.6875,125.69222 Z"
         clip-path="url(#p1cdbdb9c68)"
         style="mix-blend-mode:multiply;fill:#ff00ff;fill-opacity:1;stroke:none;stroke-linejoin:miter;stroke-opacity:1"
         id="path4440"
         transform="translate(0,-48.280416)" /><path
         d="M 142.3125,601.50778 194.625,571.5 h -69.75 z"
         clip-path="url(#p8e69142465)"
         style="mix-blend-mode:multiply;fill:#00ffff;fill-opacity:1;stroke:none;stroke-linejoin:miter;stroke-opacity:1"
         id="path5269"
         transform="translate(662.625,-310.49589)" /><path
         d="m 124.875,467.55 17.4375,-30.00778 v 60.01556 z"
         clip-path="url(#p8e69142465)"
         style="mix-blend-mode:multiply;fill:#00ffff;fill-opacity:1;stroke:none;stroke-linejoin:miter;stroke-opacity:1"
         id="path5272"
         transform="translate(679.125,-42.438211)" /><path
         d="m 142.3125,333.59222 h 34.875 v 60.01556 z"
         clip-path="url(#p8e69142465)"
         style="mix-blend-mode:multiply;fill:#00ffff;fill-opacity:1;stroke:none;stroke-linejoin:miter;stroke-opacity:1"
         id="path5275"
         transform="translate(662.625,-310.49589)" /><path
         d="M 194.625,259.65 177.1875,289.65778 142.3125,229.64222 124.875,259.65 Z"
         clip-path="url(#p8e69142465)"
         style="mix-blend-mode:multiply;fill:#00ffff;fill-opacity:1;stroke:none;stroke-linejoin:miter;stroke-opacity:1"
         id="path5278"
         transform="translate(0,-48.280416)" /><path
         d="M 194.625,155.7 142.3125,185.70778 124.875,155.7 l 52.3125,30.00778 z"
         clip-path="url(#p8e69142465)"
         style="mix-blend-mode:multiply;fill:#00ffff;fill-opacity:1;stroke:none;stroke-linejoin:miter;stroke-opacity:1"
         id="path5281"
         transform="translate(0,-48.280416)" /><path
         d="M 281.8125,601.50778 246.9375,541.49222 229.5,571.5 Z"
         clip-path="url(#p8e69142465)"
         style="mix-blend-mode:multiply;fill:#00ffff;fill-opacity:1;stroke:none;stroke-linejoin:miter;stroke-opacity:1"
         id="path5284"
         transform="translate(662.625,-310.49589)" /><path
         d="M 281.8125,437.54222 246.9375,497.55778 299.25,467.55 Z"
         clip-path="url(#p8e69142465)"
         style="mix-blend-mode:multiply;fill:#00ffff;fill-opacity:1;stroke:none;stroke-linejoin:miter;stroke-opacity:1"
         id="path5287"
         transform="translate(662.625,-310.49589)" /><path
         d="M 281.8125,393.60778 229.5,363.6 281.8125,333.59222 Z"
         clip-path="url(#p8e69142465)"
         style="mix-blend-mode:multiply;fill:#00ffff;fill-opacity:1;stroke:none;stroke-linejoin:miter;stroke-opacity:1"
         id="path5290"
         transform="translate(662.625,-310.49589)" /><path
         d="m 246.9375,229.64222 34.875,60.01556 L 299.25,259.65 H 229.5 Z"
         clip-path="url(#p8e69142465)"
         style="mix-blend-mode:multiply;fill:#00ffff;fill-opacity:1;stroke:none;stroke-linejoin:miter;stroke-opacity:1"
         id="path5293"
         transform="translate(0,-48.280416)" /><path
         d="M 246.9375,125.69222 229.5,155.7 h 69.75 l -52.3125,30.00778 z"
         clip-path="url(#p8e69142465)"
         style="mix-blend-mode:multiply;fill:#00ffff;fill-opacity:1;stroke:none;stroke-linejoin:miter;stroke-opacity:1"
         id="path5296"
         transform="translate(0,-48.280416)" /><path
         d="m 403.875,571.5 -52.3125,-30.00778 v 60.01556 h 34.875 z"
         clip-path="url(#p8e69142465)"
         style="mix-blend-mode:multiply;fill:#00ffff;fill-opacity:1;stroke:none;stroke-linejoin:miter;stroke-opacity:1"
         id="path5299"
         transform="translate(662.625,-310.49589)" /><path
         d="M 351.5625,437.54222 403.875,467.55 h -69.75 z"
         clip-path="url(#p8e69142465)"
         style="mix-blend-mode:multiply;fill:#00ffff;fill-opacity:1;stroke:none;stroke-linejoin:miter;stroke-opacity:1"
         id="path5302"
         transform="translate(662.625,-310.49589)" /><path
         d="M 386.4375,333.59222 334.125,363.6 351.5625,333.59222 Z"
         clip-path="url(#p8e69142465)"
         style="mix-blend-mode:multiply;fill:#00ffff;fill-opacity:1;stroke:none;stroke-linejoin:miter;stroke-opacity:1"
         id="path5305"
         transform="translate(662.625,-310.49589)" /><path
         d="M 386.4375,289.65778 403.875,259.65 351.5625,289.65778 334.125,259.65 Z"
         clip-path="url(#p8e69142465)"
         style="mix-blend-mode:multiply;fill:#00ffff;fill-opacity:1;stroke:none;stroke-linejoin:miter;stroke-opacity:1"
         id="path5308"
         transform="translate(0,-48.280416)" /><path
         d="m 334.125,155.7 17.4375,30.00778 h 34.875 v -60.01556 z"
         clip-path="url(#p8e69142465)"
         style="mix-blend-mode:multiply;fill:#00ffff;fill-opacity:1;stroke:none;stroke-linejoin:miter;stroke-opacity:1"
         id="path5311"
         transform="translate(0,-48.280416)" /><path
         d="m 438.75,571.5 17.4375,-30.00778 34.875,60.01556 z"
         clip-path="url(#p8e69142465)"
         style="mix-blend-mode:multiply;fill:#00ffff;fill-opacity:1;stroke:none;stroke-linejoin:miter;stroke-opacity:1"
         id="path5314"
         transform="translate(662.625,-310.49589)" /><path
         d="m 456.1875,497.55778 34.875,-60.01556 v 60.01556 z"
         clip-path="url(#p8e69142465)"
         style="mix-blend-mode:multiply;fill:#00ffff;fill-opacity:1;stroke:none;stroke-linejoin:miter;stroke-opacity:1"
         id="path5317"
         transform="translate(662.625,-310.49589)" /><path
         d="M 438.75,363.6 456.1875,333.59222 508.5,363.6 Z"
         clip-path="url(#p8e69142465)"
         style="mix-blend-mode:multiply;fill:#00ffff;fill-opacity:1;stroke:none;stroke-linejoin:miter;stroke-opacity:1"
         id="path5320"
         transform="translate(662.625,-310.49589)" /><path
         d="M 456.1875,289.65778 491.0625,229.64222 508.5,259.65 Z"
         clip-path="url(#p8e69142465)"
         style="mix-blend-mode:multiply;fill:#00ffff;fill-opacity:1;stroke:none;stroke-linejoin:miter;stroke-opacity:1"
         id="path5323"
         transform="translate(0,-48.280416)" /><path
         d="M 508.5,155.7 491.0625,185.70778 438.75,155.7 Z"
         clip-path="url(#p8e69142465)"
         style="mix-blend-mode:multiply;fill:#00ffff;fill-opacity:1;stroke:none;stroke-linejoin:miter;stroke-opacity:1"
         id="path5326"
         transform="translate(0,-48.280416)" /><path
         d="M 560.8125,541.49222 543.375,571.5 h 69.75 z"
         clip-path="url(#p8e69142465)"
         style="mix-blend-mode:multiply;fill:#00ffff;fill-opacity:1;stroke:none;stroke-linejoin:miter;stroke-opacity:1"
         id="path5329"
         transform="translate(662.625,-310.49589)" /><path
         d="M 595.6875,437.54222 613.125,467.55 h -69.75 z"
         clip-path="url(#p8e69142465)"
         style="mix-blend-mode:multiply;fill:#00ffff;fill-opacity:1;stroke:none;stroke-linejoin:miter;stroke-opacity:1"
         id="path5332"
         transform="translate(662.625,-310.49589)" /><path
         d="m 595.6875,333.59222 h -34.875 v 60.01556 z"
         clip-path="url(#p8e69142465)"
         style="mix-blend-mode:multiply;fill:#00ffff;fill-opacity:1;stroke:none;stroke-linejoin:miter;stroke-opacity:1"
         id="path5335"
         transform="translate(662.625,-310.49589)" /><path
         d="m 543.375,259.65 52.3125,30.00778 h -34.875 z"
         clip-path="url(#p8e69142465)"
         style="mix-blend-mode:multiply;fill:#00ffff;fill-opacity:1;stroke:none;stroke-linejoin:miter;stroke-opacity:1"
         id="path5338"
         transform="translate(0,-48.280416)" /><path
         d="M 560.8125,185.70778 543.375,155.7 595.6875,125.69222 v 60.01556 z"
         clip-path="url(#p8e69142465)"
         style="mix-blend-mode:multiply;fill:#00ffff;fill-opacity:1;stroke:none;stroke-linejoin:miter;stroke-opacity:1"
         id="path5341"
         transform="translate(0,-48.280416)" /><path
         d="M 177.1875,601.50778 194.625,571.5 177.1875,541.49222 h -34.875 z"
         clip-path="url(#p99863fd92d)"
         style="mix-blend-mode:multiply;fill:#ffff00;fill-opacity:1;stroke:none;stroke-linejoin:miter;stroke-opacity:1"
         id="path2741"
         transform="translate(662.625,-310.49589)" /><path
         d="m 142.3125,497.55778 h 34.875 l -34.875,-60.01556 z"
         clip-path="url(#p99863fd92d)"
         style="mix-blend-mode:multiply;fill:#ffff00;fill-opacity:1;stroke:none;stroke-linejoin:miter;stroke-opacity:1"
         id="path2744"
         transform="translate(679.125,-42.438211)" /><path
         d="M 142.3125,393.60778 194.625,363.6 177.1875,333.59222 124.875,363.6 Z"
         clip-path="url(#p99863fd92d)"
         style="mix-blend-mode:multiply;fill:#ffff00;fill-opacity:1;stroke:none;stroke-linejoin:miter;stroke-opacity:1"
         id="path2747"
         transform="translate(662.625,-310.49589)" /><path
         d="m 194.625,259.65 -17.4375,-30.00778 h -34.875 z"
         clip-path="url(#p99863fd92d)"
         style="mix-blend-mode:multiply;fill:#ffff00;fill-opacity:1;stroke:none;stroke-linejoin:miter;stroke-opacity:1"
         id="path2750"
         transform="translate(0,-48.280416)" /><path
         d="M 177.1875,185.70778 194.625,155.7 142.3125,125.69222 124.875,155.7 Z"
         clip-path="url(#p99863fd92d)"
         style="mix-blend-mode:multiply;fill:#ffff00;fill-opacity:1;stroke:none;stroke-linejoin:miter;stroke-opacity:1"
         id="path2753"
         transform="translate(0,-48.280416)" /><path
         d="M 246.9375,601.50778 299.25,571.5 281.8125,541.49222 h -34.875 z"
         clip-path="url(#p99863fd92d)"
         style="mix-blend-mode:multiply;fill:#ffff00;fill-opacity:1;stroke:none;stroke-linejoin:miter;stroke-opacity:1"
         id="path2756"
         transform="translate(662.625,-310.49589)" /><path
         d="M 246.9375,497.55778 299.25,467.55 246.9375,437.54222 229.5,467.55 Z"
         clip-path="url(#p99863fd92d)"
         style="mix-blend-mode:multiply;fill:#ffff00;fill-opacity:1;stroke:none;stroke-linejoin:miter;stroke-opacity:1"
         id="path2759"
         transform="translate(662.625,-310.49589)" /><path
         d="M 281.8125,393.60778 299.25,363.6 H 229.5 Z"
         clip-path="url(#p99863fd92d)"
         style="mix-blend-mode:multiply;fill:#ffff00;fill-opacity:1;stroke:none;stroke-linejoin:miter;stroke-opacity:1"
         id="path2762"
         transform="translate(662.625,-310.49589)" /><path
         d="m 246.9375,289.65778 34.875,-60.01556 h -34.875 z"
         clip-path="url(#p99863fd92d)"
         style="mix-blend-mode:multiply;fill:#ffff00;fill-opacity:1;stroke:none;stroke-linejoin:miter;stroke-opacity:1"
         id="path2765"
         transform="translate(0,-48.280416)" /><path
         d="m 246.9375,185.70778 h 34.875 L 246.9375,125.69222 229.5,155.7 Z"
         clip-path="url(#p99863fd92d)"
         style="mix-blend-mode:multiply;fill:#ffff00;fill-opacity:1;stroke:none;stroke-linejoin:miter;stroke-opacity:1"
         id="path2768"
         transform="translate(0,-48.280416)" /><path
         d="m 351.5625,601.50778 h 34.875 v -60.01556 z"
         clip-path="url(#p99863fd92d)"
         style="mix-blend-mode:multiply;fill:#ffff00;fill-opacity:1;stroke:none;stroke-linejoin:miter;stroke-opacity:1"
         id="path2771"
         transform="translate(662.625,-310.49589)" /><path
         d="m 351.5625,497.55778 h 34.875 L 403.875,467.55 386.4375,437.54222 Z"
         clip-path="url(#p99863fd92d)"
         style="mix-blend-mode:multiply;fill:#ffff00;fill-opacity:1;stroke:none;stroke-linejoin:miter;stroke-opacity:1"
         id="path2774"
         transform="translate(662.625,-310.49589)" /><path
         d="m 351.5625,393.60778 h 34.875 L 334.125,363.6 Z"
         clip-path="url(#p99863fd92d)"
         style="mix-blend-mode:multiply;fill:#ffff00;fill-opacity:1;stroke:none;stroke-linejoin:miter;stroke-opacity:1"
         id="path2777"
         transform="translate(662.625,-310.49589)" /><path
         d="m 403.875,259.65 -17.4375,-30.00778 h -34.875 z"
         clip-path="url(#p99863fd92d)"
         style="mix-blend-mode:multiply;fill:#ffff00;fill-opacity:1;stroke:none;stroke-linejoin:miter;stroke-opacity:1"
         id="path2780"
         transform="translate(0,-48.280416)" /><path
         d="M 386.4375,185.70778 403.875,155.7 351.5625,125.69222 334.125,155.7 Z"
         clip-path="url(#p99863fd92d)"
         style="mix-blend-mode:multiply;fill:#ffff00;fill-opacity:1;stroke:none;stroke-linejoin:miter;stroke-opacity:1"
         id="path2783"
         transform="translate(0,-48.280416)" /><path
         d="M 456.1875,601.50778 508.5,571.5 491.0625,541.49222 Z"
         clip-path="url(#p99863fd92d)"
         style="mix-blend-mode:multiply;fill:#ffff00;fill-opacity:1;stroke:none;stroke-linejoin:miter;stroke-opacity:1"
         id="path2786"
         transform="translate(662.625,-310.49589)" /><path
         d="M 491.0625,497.55778 508.5,467.55 456.1875,437.54222 438.75,467.55 Z"
         clip-path="url(#p99863fd92d)"
         style="mix-blend-mode:multiply;fill:#ffff00;fill-opacity:1;stroke:none;stroke-linejoin:miter;stroke-opacity:1"
         id="path2789"
         transform="translate(662.625,-310.49589)" /><path
         d="M 491.0625,393.60778 508.5,363.6 491.0625,333.59222 438.75,363.6 Z"
         clip-path="url(#p99863fd92d)"
         style="mix-blend-mode:multiply;fill:#ffff00;fill-opacity:1;stroke:none;stroke-linejoin:miter;stroke-opacity:1"
         id="path2792"
         transform="translate(662.625,-310.49589)" /><path
         d="M 491.0625,289.65778 508.5,259.65 491.0625,229.64222 Z"
         clip-path="url(#p99863fd92d)"
         style="mix-blend-mode:multiply;fill:#ffff00;fill-opacity:1;stroke:none;stroke-linejoin:miter;stroke-opacity:1"
         id="path2795"
         transform="translate(0,-48.280416)" /><path
         d="m 456.1875,185.70778 h 34.875 L 456.1875,125.69222 438.75,155.7 Z"
         clip-path="url(#p99863fd92d)"
         style="mix-blend-mode:multiply;fill:#ffff00;fill-opacity:1;stroke:none;stroke-linejoin:miter;stroke-opacity:1"
         id="path2798"
         transform="translate(0,-48.280416)" /><path
         d="m 560.8125,601.50778 h 34.875 L 560.8125,541.49222 543.375,571.5 Z"
         clip-path="url(#p99863fd92d)"
         style="mix-blend-mode:multiply;fill:#ffff00;fill-opacity:1;stroke:none;stroke-linejoin:miter;stroke-opacity:1"
         id="path2801"
         transform="translate(662.625,-310.49589)" /><path
         d="m 560.8125,497.55778 h 34.875 L 543.375,467.55 Z"
         clip-path="url(#p99863fd92d)"
         style="mix-blend-mode:multiply;fill:#ffff00;fill-opacity:1;stroke:none;stroke-linejoin:miter;stroke-opacity:1"
         id="path2804"
         transform="translate(662.625,-310.49589)" /><path
         d="m 560.8125,393.60778 h 34.875 L 613.125,363.6 595.6875,333.59222 Z"
         clip-path="url(#p99863fd92d)"
         style="mix-blend-mode:multiply;fill:#ffff00;fill-opacity:1;stroke:none;stroke-linejoin:miter;stroke-opacity:1"
         id="path2807"
         transform="translate(662.625,-310.49589)" /><path
         d="m 613.125,259.65 -17.4375,-30.00778 h -34.875 L 543.375,259.65 Z"
         clip-path="url(#p99863fd92d)"
         style="mix-blend-mode:multiply;fill:#ffff00;fill-opacity:1;stroke:none;stroke-linejoin:miter;stroke-opacity:1"
         id="path2810"
         transform="translate(0,-48.280416)" /><path
         d="M 595.6875,185.70778 613.125,155.7 595.6875,125.69222 Z"
         clip-path="url(#p99863fd92d)"
         style="mix-blend-mode:multiply;fill:#ffff00;fill-opacity:1;stroke:none;stroke-linejoin:miter;stroke-opacity:1"
         id="path2813"
         transform="translate(0,-48.280416)" /></g><text
       xml:space="preserve"
       style="font-weight:bold;font-size:3.52778px;font-family:Bahnschrift;-inkscape-font-specification:'Bahnschrift Bold';fill:#000000;fill-opacity:1;stroke-width:0.4;stroke-linecap:round;stroke-linejoin:round"
       x="269.65106"
       y="48.750168"
       id="text2087"><tspan
         id="tspan2085"
         style="font-size:3.52778px;stroke-width:0.4"
         x="269.65106"
         y="48.750168">Open-Source 2D Material Detection</tspan></text></g></svg>
